<svg width="18" height="18" viewBox="0 0 18 18" fill="none" xmlns="http://www.w3.org/2000/svg">
<path d="M0.69043 2.82C0.69043 1.36197 1.86101 0.180308 3.30493 0.180664C4.74885 0.18102 5.91907 1.36268 5.91872 2.82071C5.91872 4.27838 4.74814 5.46005 3.30458 5.46005C1.86101 5.46005 0.69043 4.27803 0.69043 2.82036" fill="#EBFF55"/>
<path d="M5.39816 6.53906H0.880536C0.786368 7.23531 0.774729 8.35821 0.861844 9.47969C0.963066 10.8031 1.30447 13.0603 3.04289 14.815C4.7746 16.5629 7.00149 16.887 8.32655 17.017C9.24037 17.1067 10.5951 17.0964 11.2997 16.9981V12.515H5.39816V6.53906Z" fill="#EBFF55"/>
<path d="M17.6511 14.3877C17.6511 15.8458 16.4809 17.0274 15.037 17.0274C13.5931 17.0274 12.4229 15.8458 12.4229 14.3877C12.4229 12.9297 13.5931 11.748 15.037 11.748C16.4806 11.748 17.6508 12.9294 17.6511 14.387V14.3877Z" fill="#EBFF55"/>
<path d="M12.9436 10.6706H17.4612C17.5554 9.97439 17.567 8.85113 17.4799 7.73001C17.3787 6.40661 17.0373 4.14905 15.2988 2.39472C13.5671 0.646437 11.3402 0.322708 10.0152 0.192361C9.10136 0.102615 7.74667 0.112943 7.04199 0.211237V4.69323H12.9436V10.6706Z" fill="#EBFF55"/>
</svg>
