<svg width="379" height="397" viewBox="0 0 379 397" fill="none" xmlns="http://www.w3.org/2000/svg">
<line x1="54.859" y1="279.364" x2="330.715" y2="51.6278" stroke="#EBFF54" stroke-width="3" stroke-linecap="round"/>
<path d="M55.1992 0.87793C55.1992 0.601787 54.9754 0.37793 54.6992 0.37793C54.4231 0.37793 54.1992 0.601787 54.1992 0.87793L55.1992 0.87793ZM54.1992 0.87793L54.1992 327.975L55.1992 327.975L55.1992 0.87793L54.1992 0.87793Z" fill="url(#paint0_linear_182_1162)"/>
<path d="M378.346 328.024C378.622 328.024 378.846 327.801 378.846 327.524C378.846 327.248 378.622 327.024 378.346 327.024L378.346 328.024ZM378.346 327.024L54.6572 327.024L54.6572 328.024L378.346 328.024L378.346 327.024Z" fill="url(#paint1_linear_182_1162)"/>
<line x1="332.405" y1="279.206" x2="53.1992" y2="279.206" stroke="#B0AD8F" stroke-width="0.7" stroke-dasharray="4 4"/>
<rect x="55.0072" y="50.2074" width="277.048" height="277.048" stroke="#B0AD8F" stroke-width="0.7" stroke-dasharray="4 4"/>
<path d="M11.248 184.632L2.72805 184.632L2.72805 181.116C2.72805 179.268 3.70005 178.188 5.53605 178.188C7.33605 178.188 8.33205 179.268 8.33205 181.116L8.33205 183.492L11.248 183.492L11.248 184.632ZM7.30005 183.492L7.30005 181.044C7.30005 179.988 6.61605 179.328 5.53605 179.328C4.38405 179.328 3.76005 179.988 3.76005 181.044L3.76005 183.492L7.30005 183.492ZM11.248 176.325L2.72805 176.325L2.72805 172.581C2.72805 170.625 3.80805 169.713 5.33205 169.713C6.60405 169.713 7.49205 170.349 7.84005 171.453L11.248 169.293L11.248 170.649L7.99605 172.617L7.99605 175.173L11.248 175.173L11.248 176.325ZM6.96405 175.173L6.96405 172.509C6.96405 171.381 6.42405 170.853 5.38005 170.853C4.32405 170.853 3.76005 171.381 3.76005 172.509L3.76005 175.173L6.96405 175.173ZM11.248 167.431L2.72805 167.431L2.72805 166.279L11.248 166.279L11.248 167.431ZM11.368 160.174C11.368 162.778 9.74805 164.266 6.97605 164.266C4.24005 164.266 2.60805 162.778 2.60805 160.174C2.60805 158.098 3.58004 156.562 5.63205 156.382L5.63205 157.63C4.33605 157.75 3.60405 158.602 3.60405 160.054L3.60405 160.234C3.60405 161.986 4.70805 163.09 6.95205 163.09C9.25605 163.09 10.36 161.986 10.36 160.234L10.36 160.018C10.36 158.602 9.68805 157.738 8.46405 157.618L8.46405 156.418C10.252 156.646 11.368 157.69 11.368 160.174ZM11.248 154.47L2.72805 154.47L2.72804 148.458L3.76005 148.458L3.76005 153.318L6.43605 153.318L6.43604 148.818L7.46804 148.818L7.46805 153.318L10.216 153.318L10.216 148.458L11.248 148.458L11.248 154.47Z" fill="#EBFF54"/>
<path d="M4.13605 55.4374V54.2494C2.25205 54.1174 1.20805 53.1934 1.16005 51.6454H2.32405C2.39605 52.6534 2.93605 53.1814 4.13605 53.2774V50.4934L3.54805 50.3614C2.06005 50.0254 1.32805 49.4134 1.32805 48.2254C1.32805 46.9654 2.27605 46.0654 4.12405 45.9454V44.9974H5.08405V45.9574C6.87205 46.0894 7.90405 46.9654 7.97605 48.3814H6.80005C6.72805 47.5294 6.18805 47.0134 5.07205 46.9174V49.6174L5.72005 49.7614C7.36405 50.1334 7.96405 50.8054 7.96405 51.9214C7.96405 53.3974 6.90805 54.1414 5.08405 54.2494V55.4374H4.13605ZM2.42005 48.1294C2.42005 48.7294 2.74405 49.0894 4.07605 49.3894L4.13605 49.4014L4.13605 46.9174C2.99605 47.0014 2.42005 47.3974 2.42005 48.1294ZM5.07205 53.2774C6.28405 53.2054 6.88405 52.7854 6.88405 51.9934C6.88405 51.3454 6.52405 51.0454 5.22805 50.7454L5.07205 50.7094L5.07205 53.2774ZM17.3536 54.4774C15.1936 54.4774 13.9576 52.7974 13.9576 50.0614C13.9576 47.3614 15.1936 45.7174 17.3536 45.7174C19.5136 45.7174 20.7496 47.2774 20.7496 50.0614C20.7496 52.8454 19.5136 54.4774 17.3536 54.4774ZM15.1096 50.0734C15.1096 52.2454 15.8296 53.4694 17.2936 53.4694H17.4136C18.8896 53.4694 19.6096 52.2934 19.6096 50.0734C19.6096 47.9014 18.8896 46.7254 17.4136 46.7254H17.2936C15.8296 46.7254 15.1096 47.9374 15.1096 50.0734ZM23.3954 54.4774C22.9514 54.4774 22.6034 54.1294 22.6034 53.6854C22.6034 53.2414 22.9514 52.8934 23.3954 52.8934C23.8394 52.8934 24.1874 53.2414 24.1874 53.6854C24.1874 54.1294 23.8394 54.4774 23.3954 54.4774ZM26.0747 53.6254C26.0747 52.6414 26.5067 51.8974 27.8147 51.1174L29.8427 49.9054C30.8387 49.3174 31.1867 48.8854 31.1867 48.1894C31.1867 47.1934 30.3587 46.7374 29.1587 46.7374H29.0627C27.8147 46.7374 27.2267 47.3494 27.1787 48.4174H26.0147C26.1467 46.7374 27.1667 45.7174 29.1347 45.7174C30.9947 45.7174 32.2427 46.6534 32.2427 48.1654C32.2427 49.4254 31.7507 50.0014 30.3707 50.8294L28.3067 52.0654C27.6227 52.4734 27.3467 52.7494 27.3107 53.3014L32.3627 53.3014V54.3574L26.0747 54.3574V53.6254ZM37.1334 54.4774C34.9734 54.4774 33.7374 52.7974 33.7374 50.0614C33.7374 47.3614 34.9734 45.7174 37.1334 45.7174C39.2934 45.7174 40.5294 47.2774 40.5294 50.0614C40.5294 52.8454 39.2934 54.4774 37.1334 54.4774ZM34.8894 50.0734C34.8894 52.2454 35.6094 53.4694 37.0734 53.4694H37.1934C38.6694 53.4694 39.3894 52.2934 39.3894 50.0734C39.3894 47.9014 38.6694 46.7254 37.1934 46.7254H37.0734C35.6094 46.7254 34.8894 47.9374 34.8894 50.0734Z" fill="#B0AD8F"/>
<path d="M4.13605 284.436V283.248C2.25205 283.116 1.20805 282.192 1.16005 280.644H2.32405C2.39605 281.652 2.93605 282.18 4.13605 282.276V279.492L3.54805 279.36C2.06005 279.024 1.32805 278.412 1.32805 277.224C1.32805 275.964 2.27605 275.064 4.12405 274.944V273.996H5.08405V274.956C6.87205 275.088 7.90405 275.964 7.97605 277.38H6.80005C6.72805 276.528 6.18805 276.012 5.07205 275.916V278.616L5.72005 278.76C7.36405 279.132 7.96405 279.804 7.96405 280.92C7.96405 282.396 6.90805 283.14 5.08405 283.248V284.436H4.13605ZM2.42005 277.128C2.42005 277.728 2.74405 278.088 4.07605 278.388L4.13605 278.4L4.13605 275.916C2.99605 276 2.42005 276.396 2.42005 277.128ZM5.07205 282.276C6.28405 282.204 6.88405 281.784 6.88405 280.992C6.88405 280.344 6.52405 280.044 5.22805 279.744L5.07205 279.708L5.07205 282.276ZM17.3536 283.476C15.1936 283.476 13.9576 281.796 13.9576 279.06C13.9576 276.36 15.1936 274.716 17.3536 274.716C19.5136 274.716 20.7496 276.276 20.7496 279.06C20.7496 281.844 19.5136 283.476 17.3536 283.476ZM15.1096 279.072C15.1096 281.244 15.8296 282.468 17.2936 282.468H17.4136C18.8896 282.468 19.6096 281.292 19.6096 279.072C19.6096 276.9 18.8896 275.724 17.4136 275.724H17.2936C15.8296 275.724 15.1096 276.936 15.1096 279.072ZM23.3954 283.476C22.9514 283.476 22.6034 283.128 22.6034 282.684C22.6034 282.24 22.9514 281.892 23.3954 281.892C23.8394 281.892 24.1874 282.24 24.1874 282.684C24.1874 283.128 23.8394 283.476 23.3954 283.476ZM29.4347 283.476C27.2747 283.476 26.0387 281.796 26.0387 279.06C26.0387 276.36 27.2747 274.716 29.4347 274.716C31.5947 274.716 32.8307 276.276 32.8307 279.06C32.8307 281.844 31.5947 283.476 29.4347 283.476ZM27.1907 279.072C27.1907 281.244 27.9107 282.468 29.3747 282.468H29.4947C30.9707 282.468 31.6907 281.292 31.6907 279.072C31.6907 276.9 30.9707 275.724 29.4947 275.724H29.3747C27.9107 275.724 27.1907 276.936 27.1907 279.072ZM36.0885 274.836C36.8325 274.836 37.1685 275.172 37.1685 275.916V283.392H36.0645V275.904H34.3005V274.836H36.0885Z" fill="#B0AD8F"/>
<path d="M57.0752 349.338C54.9152 349.338 53.6792 347.658 53.6792 344.922C53.6792 342.222 54.9152 340.578 57.0752 340.578C59.2352 340.578 60.4712 342.138 60.4712 344.922C60.4712 347.706 59.2352 349.338 57.0752 349.338ZM54.8312 344.934C54.8312 347.106 55.5512 348.33 57.0152 348.33H57.1352C58.6112 348.33 59.3312 347.154 59.3312 344.934C59.3312 342.762 58.6112 341.586 57.1352 341.586H57.0152C55.5512 341.586 54.8312 342.798 54.8312 344.934Z" fill="#B0AD8F"/>
<path d="M312.921 348.486C312.921 347.974 313.049 347.522 313.305 347.13C313.569 346.738 314.021 346.354 314.661 345.978L316.689 344.766C317.193 344.47 317.541 344.198 317.733 343.95C317.933 343.694 318.033 343.394 318.033 343.05C318.033 342.57 317.849 342.21 317.481 341.97C317.121 341.722 316.629 341.598 316.005 341.598H315.909C314.701 341.598 314.073 342.158 314.025 343.278H312.861C312.925 342.422 313.217 341.758 313.737 341.286C314.265 340.814 315.013 340.578 315.981 340.578C316.597 340.578 317.137 340.678 317.601 340.878C318.073 341.078 318.437 341.362 318.693 341.73C318.957 342.098 319.089 342.53 319.089 343.026C319.089 343.45 319.029 343.806 318.909 344.094C318.789 344.382 318.597 344.65 318.333 344.898C318.069 345.138 317.697 345.402 317.217 345.69L315.153 346.926C314.793 347.142 314.541 347.338 314.397 347.514C314.253 347.682 314.173 347.898 314.157 348.162H319.209V349.218H312.921V348.486ZM323.872 349.338C322.84 349.338 322.06 349.114 321.532 348.666C321.004 348.21 320.708 347.602 320.644 346.842H321.748C321.796 347.346 321.984 347.722 322.312 347.97C322.64 348.21 323.156 348.33 323.86 348.33C324.524 348.33 325.036 348.174 325.396 347.862C325.756 347.542 325.936 347.062 325.936 346.422C325.936 345.814 325.764 345.342 325.42 345.006C325.084 344.67 324.612 344.502 324.004 344.502C323.452 344.502 323.02 344.562 322.708 344.682C322.404 344.802 322.088 345.01 321.76 345.306H320.884V340.698H326.536V341.718H322V344.226H322.06C322.548 343.778 323.228 343.554 324.1 343.554C325.02 343.554 325.732 343.802 326.236 344.298C326.748 344.786 327.004 345.494 327.004 346.422C327.004 347.014 326.868 347.53 326.596 347.97C326.332 348.41 325.964 348.75 325.492 348.99C325.02 349.222 324.48 349.338 323.872 349.338ZM334.304 348.174C333.712 348.95 332.876 349.338 331.796 349.338C331.084 349.338 330.472 349.162 329.96 348.81C329.456 348.45 329.068 347.942 328.796 347.286C328.532 346.622 328.4 345.834 328.4 344.922C328.4 344.026 328.532 343.254 328.796 342.606C329.068 341.95 329.456 341.45 329.96 341.106C330.472 340.754 331.084 340.578 331.796 340.578C332.876 340.578 333.712 340.954 334.304 341.706C334.896 342.458 335.192 343.53 335.192 344.922C335.192 346.314 334.896 347.398 334.304 348.174ZM330.104 342.45C329.736 343.026 329.552 343.854 329.552 344.934C329.552 346.03 329.736 346.87 330.104 347.454C330.472 348.038 331.016 348.33 331.736 348.33H331.856C332.592 348.33 333.14 348.046 333.5 347.478C333.868 346.902 334.052 346.054 334.052 344.934C334.052 343.838 333.868 343.006 333.5 342.438C333.132 341.87 332.584 341.586 331.856 341.586H331.736C331.016 341.586 330.472 341.874 330.104 342.45ZM341.291 340.698H343.067L345.599 347.298H345.695L348.155 340.698H349.883V349.218H348.779V342.126H348.695L345.995 349.218H345.251L342.455 342.066H342.371V349.218H341.291V340.698Z" fill="#B0AD8F"/>
<path d="M147.411 379.714V372.226H144.483V371.194H151.491V372.226H148.563V379.714H147.411ZM156.798 379.834C154.194 379.834 152.694 378.202 152.694 375.418C152.694 372.67 154.194 371.074 156.798 371.074C159.402 371.074 160.902 372.586 160.902 375.418C160.902 378.25 159.402 379.834 156.798 379.834ZM153.858 375.43C153.858 377.65 154.818 378.814 156.738 378.814H156.858C158.79 378.814 159.75 377.698 159.75 375.43C159.75 373.198 158.79 372.082 156.858 372.082H156.738C154.818 372.082 153.858 373.234 153.858 375.43ZM168.455 379.846L165.635 376.03H164.087V379.846H162.947V371.194H164.087V374.926H165.635L168.431 371.194H169.727L166.571 375.454L169.835 379.846H168.455ZM171.431 379.714V371.194H177.443V372.226H172.583V374.902H177.083V375.934H172.583V378.682H177.443V379.714H171.431ZM184.845 379.834L180.645 372.598H180.561V379.714H179.481V371.194H181.077L185.181 378.298H185.265V371.194H186.345V379.834H184.845ZM196.592 379.834C193.988 379.834 192.5 378.214 192.5 375.442C192.5 372.706 193.988 371.074 196.592 371.074C198.668 371.074 200.204 372.046 200.384 374.098H199.136C199.016 372.802 198.164 372.07 196.712 372.07H196.532C194.78 372.07 193.676 373.174 193.676 375.418C193.676 377.722 194.78 378.826 196.532 378.826H196.748C198.164 378.826 199.028 378.154 199.148 376.93H200.348C200.12 378.718 199.076 379.834 196.592 379.834ZM205.92 379.834C203.316 379.834 201.816 378.202 201.816 375.418C201.816 372.67 203.316 371.074 205.92 371.074C208.524 371.074 210.024 372.586 210.024 375.418C210.024 378.25 208.524 379.834 205.92 379.834ZM202.98 375.43C202.98 377.65 203.94 378.814 205.86 378.814H205.98C207.912 378.814 208.872 377.698 208.872 375.43C208.872 373.198 207.912 372.082 205.98 372.082H205.86C203.94 372.082 202.98 373.234 202.98 375.43ZM215.417 379.834C213.137 379.834 211.949 378.49 211.949 376.246V371.194H213.101V376.174C213.101 377.926 213.917 378.814 215.417 378.814C216.929 378.814 217.733 377.926 217.733 376.174V371.194H218.885V376.246C218.885 378.574 217.613 379.834 215.417 379.834ZM226.643 379.834L222.443 372.598H222.359V379.714H221.279V371.194H222.875L226.979 378.298H227.063V371.194H228.143V379.834H226.643ZM232.754 379.714V372.226H229.826V371.194H236.834V372.226H233.906V379.714H232.754Z" fill="#EBFF54"/>
<path d="M168.769 396.194C168.069 395.114 167.419 393.584 167.419 391.564C167.419 389.544 168.069 387.994 168.769 386.914H169.669C168.959 388.054 168.299 389.534 168.299 391.564C168.299 393.594 168.959 395.054 169.669 396.194H168.769ZM171.066 394.714V389.314H171.986V390.164H172.046C172.466 389.544 172.926 389.224 173.746 389.224C174.506 389.224 175.076 389.544 175.346 390.184H175.406C175.826 389.534 176.336 389.224 177.156 389.224C178.306 389.224 179.026 389.854 179.026 391.174V394.714H178.106V391.344C178.106 390.594 177.696 390.074 176.826 390.074C175.986 390.074 175.506 390.584 175.506 391.404V394.714H174.586V391.344C174.586 390.584 174.176 390.074 173.356 390.074C172.486 390.074 171.986 390.584 171.986 391.404V394.714H171.066ZM181.019 394.714V389.314H181.959V394.714H181.019ZM180.869 387.564C180.869 387.224 181.139 386.954 181.489 386.954C181.839 386.954 182.109 387.224 182.109 387.564C182.109 387.924 181.839 388.194 181.489 388.194C181.139 388.194 180.869 387.924 180.869 387.564ZM184.005 394.714V386.914H184.925V394.714H184.005ZM186.886 394.714V386.914H187.806V394.714H186.886ZM189.856 394.714V389.314H190.796V394.714H189.856ZM189.706 387.564C189.706 387.224 189.976 386.954 190.326 386.954C190.676 386.954 190.946 387.224 190.946 387.564C190.946 387.924 190.676 388.194 190.326 388.194C189.976 388.194 189.706 387.924 189.706 387.564ZM195.292 394.814C193.562 394.814 192.512 393.764 192.512 391.994C192.512 390.254 193.562 389.224 195.292 389.224C197.022 389.224 198.072 390.254 198.072 391.994C198.072 393.764 197.022 394.814 195.292 394.814ZM193.452 392.004C193.452 393.264 194.102 394.034 195.252 394.034H195.332C196.552 394.034 197.132 393.254 197.132 392.004C197.132 390.764 196.542 390.004 195.332 390.004H195.252C194.082 390.004 193.452 390.784 193.452 392.004ZM199.677 394.714V389.314H200.597V390.114H200.657C201.077 389.494 201.667 389.214 202.437 389.214C203.707 389.214 204.467 389.964 204.467 391.284V394.714H203.547V391.404C203.547 390.484 203.037 390.044 202.167 390.044C201.177 390.044 200.597 390.624 200.597 391.564V394.714H199.677ZM208.547 394.814C206.867 394.814 206.037 394.174 205.937 392.794H206.887C206.957 393.654 207.477 394.044 208.537 394.044C209.507 394.044 209.957 393.774 209.957 393.204C209.957 392.864 209.687 392.654 209.107 392.544L207.767 392.294C206.537 392.064 206.117 391.674 206.117 390.814C206.117 389.814 206.937 389.224 208.427 389.224C209.997 389.224 210.867 389.894 210.907 391.114H209.947C209.887 390.354 209.387 389.984 208.427 389.984C207.477 389.984 207.037 390.234 207.037 390.774C207.037 391.114 207.297 391.304 207.937 391.424L209.227 391.664C210.407 391.884 210.877 392.284 210.877 393.174C210.877 394.214 210.057 394.814 208.547 394.814ZM211.94 396.194C212.65 395.054 213.31 393.594 213.31 391.564C213.31 389.534 212.65 388.054 211.94 386.914H212.84C213.54 387.994 214.19 389.544 214.19 391.564C214.19 393.584 213.54 395.114 212.84 396.194H211.94Z" fill="#EBFF54"/>
<path d="M331.426 59.2769H337.811C337.944 58.2929 337.96 56.7055 337.837 55.1211C337.694 53.2508 337.211 50.0604 334.755 47.5812C332.307 45.1105 329.16 44.653 327.288 44.4688C325.996 44.3419 324.082 44.3565 323.086 44.4954V50.8295H331.426V59.2769Z" fill="#EBFF55"/>
<defs>
<linearGradient id="paint0_linear_182_1162" x1="54.1992" y1="0.87793" x2="54.1992" y2="327.975" gradientUnits="userSpaceOnUse">
<stop stop-color="#151515"/>
<stop offset="0.15" stop-color="#B0AD8F"/>
</linearGradient>
<linearGradient id="paint1_linear_182_1162" x1="337.19" y1="327.524" x2="374.018" y2="327.524" gradientUnits="userSpaceOnUse">
<stop stop-color="#B0AD8F"/>
<stop offset="1" stop-color="#151515"/>
</linearGradient>
</defs>
</svg>
