<svg width="26" height="27" viewBox="0 0 26 27" fill="none" xmlns="http://www.w3.org/2000/svg">
<path fill-rule="evenodd" clip-rule="evenodd" d="M13.1733 26.2949C20.2147 26.2949 25.9229 20.5868 25.9229 13.5454C25.9229 6.50405 20.2147 0.795898 13.1733 0.795898C6.13198 0.795898 0.423828 6.50405 0.423828 13.5454C0.423828 20.5868 6.13198 26.2949 13.1733 26.2949ZM16.5703 10.9425C16.8575 10.6552 16.8575 10.1895 16.5703 9.90224C16.283 9.615 15.8173 9.615 15.5301 9.90224L12.9295 12.5028L10.5024 10.0756C10.2151 9.78836 9.7494 9.78836 9.46215 10.0756C9.17491 10.3629 9.17491 10.8286 9.46215 11.1158L11.8893 13.543L9.28878 16.1435C9.00154 16.4308 9.00154 16.8965 9.28878 17.1837C9.57603 17.471 10.0418 17.471 10.329 17.1837L12.9295 14.5832L15.3567 17.0104C15.6439 17.2976 16.1097 17.2976 16.3969 17.0104C16.6842 16.7231 16.6842 16.2574 16.3969 15.9702L13.9697 13.543L16.5703 10.9425Z" fill="white" fill-opacity="0.3"/>
</svg>
